<mxfile host="app.diagrams.net" modified="2024-05-30T16:42:44.064Z" agent="Mozilla/5.0 (X11; Ubuntu; Linux x86_64; rv:126.0) Gecko/20100101 Firefox/126.0" etag="kOOgLupotYdb8EB8Rq6v" version="24.4.10" type="device">
  <diagram name="Página-1" id="qNJy3He41Hb_h_YI0HIV">
    <mxGraphModel dx="1837" dy="589" grid="1" gridSize="10" guides="1" tooltips="1" connect="1" arrows="1" fold="1" page="1" pageScale="1" pageWidth="827" pageHeight="1169" math="0" shadow="0">
      <root>
        <mxCell id="0" />
        <mxCell id="1" parent="0" />
        <mxCell id="-58QdSwWs7H1P7PEvXWH-3" value="" style="edgeStyle=orthogonalEdgeStyle;rounded=0;orthogonalLoop=1;jettySize=auto;html=1;" edge="1" parent="1" source="-58QdSwWs7H1P7PEvXWH-1" target="-58QdSwWs7H1P7PEvXWH-2">
          <mxGeometry relative="1" as="geometry" />
        </mxCell>
        <mxCell id="-58QdSwWs7H1P7PEvXWH-1" value="Inicio" style="rounded=1;whiteSpace=wrap;html=1;fillColor=#d5e8d4;strokeColor=#82b366;" vertex="1" parent="1">
          <mxGeometry x="350" y="380" width="120" height="60" as="geometry" />
        </mxCell>
        <mxCell id="-58QdSwWs7H1P7PEvXWH-5" value="" style="edgeStyle=orthogonalEdgeStyle;rounded=0;orthogonalLoop=1;jettySize=auto;html=1;dashed=1;" edge="1" parent="1" source="-58QdSwWs7H1P7PEvXWH-2" target="-58QdSwWs7H1P7PEvXWH-4">
          <mxGeometry relative="1" as="geometry" />
        </mxCell>
        <mxCell id="-58QdSwWs7H1P7PEvXWH-11" value="" style="edgeStyle=orthogonalEdgeStyle;rounded=0;orthogonalLoop=1;jettySize=auto;html=1;" edge="1" parent="1" source="-58QdSwWs7H1P7PEvXWH-2" target="-58QdSwWs7H1P7PEvXWH-10">
          <mxGeometry relative="1" as="geometry" />
        </mxCell>
        <mxCell id="-58QdSwWs7H1P7PEvXWH-2" value="Define la función &lt;code&gt;proc_reg_separados&lt;/code&gt; que acepta cuatro argumentos y devuelve dos variables." style="whiteSpace=wrap;html=1;rounded=1;" vertex="1" parent="1">
          <mxGeometry x="335" y="494" width="150" height="90" as="geometry" />
        </mxCell>
        <mxCell id="-58QdSwWs7H1P7PEvXWH-4" value="IN&lt;br&gt;&lt;div&gt;data: Contenedor de datos (puede ser una celda de celdas).&lt;/div&gt;&lt;div&gt;info: Contenedor de información asociada a los datos.&lt;/div&gt;&lt;div&gt;rango: Rango de tiempo en formato &#39;HH:mm:ss&#39;.&lt;/div&gt;&lt;div&gt;procesar_caso: Booleano que indica si se debe procesar (true) o no (false).&lt;/div&gt;" style="whiteSpace=wrap;html=1;rounded=1;fillColor=#f8cecc;strokeColor=#b85450;" vertex="1" parent="1">
          <mxGeometry x="10" y="461" width="250" height="156" as="geometry" />
        </mxCell>
        <mxCell id="-58QdSwWs7H1P7PEvXWH-13" value="" style="edgeStyle=orthogonalEdgeStyle;rounded=0;orthogonalLoop=1;jettySize=auto;html=1;" edge="1" parent="1" source="-58QdSwWs7H1P7PEvXWH-10" target="-58QdSwWs7H1P7PEvXWH-12">
          <mxGeometry relative="1" as="geometry" />
        </mxCell>
        <mxCell id="-58QdSwWs7H1P7PEvXWH-15" value="" style="edgeStyle=orthogonalEdgeStyle;rounded=0;orthogonalLoop=1;jettySize=auto;html=1;" edge="1" parent="1" source="-58QdSwWs7H1P7PEvXWH-10" target="-58QdSwWs7H1P7PEvXWH-14">
          <mxGeometry relative="1" as="geometry" />
        </mxCell>
        <mxCell id="-58QdSwWs7H1P7PEvXWH-10" value="¿Procesar caso es verdadero?" style="rhombus;whiteSpace=wrap;html=1;rounded=1;" vertex="1" parent="1">
          <mxGeometry x="360" y="640" width="100" height="101" as="geometry" />
        </mxCell>
        <mxCell id="-58QdSwWs7H1P7PEvXWH-23" value="" style="edgeStyle=orthogonalEdgeStyle;rounded=0;orthogonalLoop=1;jettySize=auto;html=1;" edge="1" parent="1" source="-58QdSwWs7H1P7PEvXWH-12" target="-58QdSwWs7H1P7PEvXWH-22">
          <mxGeometry relative="1" as="geometry" />
        </mxCell>
        <mxCell id="-58QdSwWs7H1P7PEvXWH-12" value="Convierte &lt;code&gt;rango&lt;/code&gt; a formato datetime y extrae las horas. &lt;code&gt;hora_rango&lt;/code&gt; será un vector con las horas extraídas." style="whiteSpace=wrap;html=1;rounded=1;" vertex="1" parent="1">
          <mxGeometry x="205" y="785" width="145" height="90" as="geometry" />
        </mxCell>
        <mxCell id="-58QdSwWs7H1P7PEvXWH-113" style="edgeStyle=orthogonalEdgeStyle;rounded=0;orthogonalLoop=1;jettySize=auto;html=1;" edge="1" parent="1" source="-58QdSwWs7H1P7PEvXWH-14" target="-58QdSwWs7H1P7PEvXWH-109">
          <mxGeometry relative="1" as="geometry">
            <Array as="points">
              <mxPoint x="830" y="830" />
              <mxPoint x="830" y="2690" />
              <mxPoint x="530" y="2690" />
            </Array>
          </mxGeometry>
        </mxCell>
        <mxCell id="-58QdSwWs7H1P7PEvXWH-14" value="&lt;div&gt;datos_mod asume el valor de data&lt;/div&gt;&lt;div&gt;info_mod asume el valor de info&lt;br&gt;&lt;/div&gt;" style="whiteSpace=wrap;html=1;rounded=1;" vertex="1" parent="1">
          <mxGeometry x="470" y="790" width="130" height="80" as="geometry" />
        </mxCell>
        <mxCell id="-58QdSwWs7H1P7PEvXWH-16" value="No" style="text;html=1;align=center;verticalAlign=middle;whiteSpace=wrap;rounded=0;" vertex="1" parent="1">
          <mxGeometry x="480" y="750" width="60" height="30" as="geometry" />
        </mxCell>
        <mxCell id="-58QdSwWs7H1P7PEvXWH-17" value="Si" style="text;html=1;align=center;verticalAlign=middle;whiteSpace=wrap;rounded=0;" vertex="1" parent="1">
          <mxGeometry x="275" y="750" width="60" height="30" as="geometry" />
        </mxCell>
        <mxCell id="-58QdSwWs7H1P7PEvXWH-27" style="edgeStyle=orthogonalEdgeStyle;rounded=0;orthogonalLoop=1;jettySize=auto;html=1;dashed=1;" edge="1" parent="1" source="-58QdSwWs7H1P7PEvXWH-22" target="-58QdSwWs7H1P7PEvXWH-24">
          <mxGeometry relative="1" as="geometry" />
        </mxCell>
        <mxCell id="-58QdSwWs7H1P7PEvXWH-31" value="" style="edgeStyle=orthogonalEdgeStyle;rounded=0;orthogonalLoop=1;jettySize=auto;html=1;" edge="1" parent="1" source="-58QdSwWs7H1P7PEvXWH-22" target="-58QdSwWs7H1P7PEvXWH-30">
          <mxGeometry relative="1" as="geometry" />
        </mxCell>
        <mxCell id="-58QdSwWs7H1P7PEvXWH-36" value="" style="edgeStyle=orthogonalEdgeStyle;rounded=0;orthogonalLoop=1;jettySize=auto;html=1;" edge="1" parent="1" source="-58QdSwWs7H1P7PEvXWH-22" target="-58QdSwWs7H1P7PEvXWH-35">
          <mxGeometry relative="1" as="geometry" />
        </mxCell>
        <mxCell id="-58QdSwWs7H1P7PEvXWH-22" value="&amp;nbsp; abs(hora_rango(1)-hora_rango(2))==1 || abs(hora_rango(1)-hora_rango(2))==23&lt;div&gt;&lt;br&gt;&lt;/div&gt;" style="rhombus;whiteSpace=wrap;html=1;rounded=1;" vertex="1" parent="1">
          <mxGeometry x="237.5" y="930" width="112.5" height="90" as="geometry" />
        </mxCell>
        <mxCell id="-58QdSwWs7H1P7PEvXWH-24" value="Verifica si la diferencia absoluta entre las horas es 1 o 23, lo que indica que las horas son continuas, considerando la transición de un día al siguiente." style="whiteSpace=wrap;html=1;rounded=1;fillColor=#f8cecc;strokeColor=#b85450;" vertex="1" parent="1">
          <mxGeometry x="-80" y="920" width="257.5" height="80" as="geometry" />
        </mxCell>
        <mxCell id="-58QdSwWs7H1P7PEvXWH-33" value="" style="edgeStyle=orthogonalEdgeStyle;rounded=0;orthogonalLoop=1;jettySize=auto;html=1;" edge="1" parent="1" source="-58QdSwWs7H1P7PEvXWH-30" target="-58QdSwWs7H1P7PEvXWH-32">
          <mxGeometry relative="1" as="geometry">
            <Array as="points">
              <mxPoint x="370" y="1170" />
              <mxPoint x="370" y="1200" />
              <mxPoint x="400" y="1200" />
            </Array>
          </mxGeometry>
        </mxCell>
        <mxCell id="-58QdSwWs7H1P7PEvXWH-40" value="" style="edgeStyle=orthogonalEdgeStyle;rounded=0;orthogonalLoop=1;jettySize=auto;html=1;" edge="1" parent="1" source="-58QdSwWs7H1P7PEvXWH-30" target="-58QdSwWs7H1P7PEvXWH-39">
          <mxGeometry relative="1" as="geometry" />
        </mxCell>
        <mxCell id="-58QdSwWs7H1P7PEvXWH-30" value="hora_rango(1)~=23 &amp;amp;&amp;amp; hora_rango(1)&amp;gt;hora_rango(2)&lt;div&gt;&lt;br&gt;&lt;/div&gt;" style="rhombus;whiteSpace=wrap;html=1;rounded=1;" vertex="1" parent="1">
          <mxGeometry x="237.5" y="1100" width="112.5" height="90" as="geometry" />
        </mxCell>
        <mxCell id="-58QdSwWs7H1P7PEvXWH-32" value="&#39;Error en la designacion del rango H1&amp;gt;H2&#39;" style="whiteSpace=wrap;html=1;rounded=1;" vertex="1" parent="1">
          <mxGeometry x="340" y="1220" width="120" height="60" as="geometry" />
        </mxCell>
        <mxCell id="-58QdSwWs7H1P7PEvXWH-34" value="Si" style="text;html=1;align=center;verticalAlign=middle;whiteSpace=wrap;rounded=0;" vertex="1" parent="1">
          <mxGeometry x="310" y="1180" width="60" height="30" as="geometry" />
        </mxCell>
        <mxCell id="-58QdSwWs7H1P7PEvXWH-108" style="edgeStyle=orthogonalEdgeStyle;rounded=0;orthogonalLoop=1;jettySize=auto;html=1;entryX=0.5;entryY=0;entryDx=0;entryDy=0;" edge="1" parent="1" source="-58QdSwWs7H1P7PEvXWH-35" target="-58QdSwWs7H1P7PEvXWH-109">
          <mxGeometry relative="1" as="geometry">
            <mxPoint x="750" y="2790.833333333333" as="targetPoint" />
            <Array as="points">
              <mxPoint x="800" y="1060" />
              <mxPoint x="800" y="2690" />
              <mxPoint x="530" y="2690" />
            </Array>
          </mxGeometry>
        </mxCell>
        <mxCell id="-58QdSwWs7H1P7PEvXWH-35" value="Las horas no son continuas" style="whiteSpace=wrap;html=1;rounded=1;" vertex="1" parent="1">
          <mxGeometry x="400" y="1030" width="120" height="60" as="geometry" />
        </mxCell>
        <mxCell id="-58QdSwWs7H1P7PEvXWH-37" value="No" style="text;html=1;align=center;verticalAlign=middle;whiteSpace=wrap;rounded=0;" vertex="1" parent="1">
          <mxGeometry x="400" y="980" width="60" height="30" as="geometry" />
        </mxCell>
        <mxCell id="-58QdSwWs7H1P7PEvXWH-38" value="Si" style="text;html=1;align=center;verticalAlign=middle;whiteSpace=wrap;rounded=0;" vertex="1" parent="1">
          <mxGeometry x="280" y="1030" width="60" height="30" as="geometry" />
        </mxCell>
        <mxCell id="-58QdSwWs7H1P7PEvXWH-45" value="" style="edgeStyle=orthogonalEdgeStyle;rounded=0;orthogonalLoop=1;jettySize=auto;html=1;" edge="1" parent="1" source="-58QdSwWs7H1P7PEvXWH-39" target="-58QdSwWs7H1P7PEvXWH-44">
          <mxGeometry relative="1" as="geometry" />
        </mxCell>
        <mxCell id="-58QdSwWs7H1P7PEvXWH-39" value="Obtiene las dimensiones de &lt;code&gt;data&lt;/code&gt;, almacenándolas en &lt;code&gt;dim_reg_f&lt;/code&gt; (filas) y &lt;code&gt;dim_reg_c&lt;/code&gt; (columnas)." style="whiteSpace=wrap;html=1;rounded=1;" vertex="1" parent="1">
          <mxGeometry x="215.63" y="1300" width="156.25" height="100" as="geometry" />
        </mxCell>
        <mxCell id="-58QdSwWs7H1P7PEvXWH-41" value="No" style="text;html=1;align=center;verticalAlign=middle;whiteSpace=wrap;rounded=0;" vertex="1" parent="1">
          <mxGeometry x="230" y="1235" width="60" height="30" as="geometry" />
        </mxCell>
        <mxCell id="-58QdSwWs7H1P7PEvXWH-47" value="" style="edgeStyle=orthogonalEdgeStyle;rounded=0;orthogonalLoop=1;jettySize=auto;html=1;" edge="1" parent="1" source="-58QdSwWs7H1P7PEvXWH-44" target="-58QdSwWs7H1P7PEvXWH-46">
          <mxGeometry relative="1" as="geometry" />
        </mxCell>
        <mxCell id="-58QdSwWs7H1P7PEvXWH-53" value="" style="edgeStyle=orthogonalEdgeStyle;rounded=0;orthogonalLoop=1;jettySize=auto;html=1;" edge="1" parent="1" source="-58QdSwWs7H1P7PEvXWH-44" target="-58QdSwWs7H1P7PEvXWH-52">
          <mxGeometry relative="1" as="geometry" />
        </mxCell>
        <mxCell id="-58QdSwWs7H1P7PEvXWH-81" value="" style="edgeStyle=orthogonalEdgeStyle;rounded=0;orthogonalLoop=1;jettySize=auto;html=1;" edge="1" parent="1" source="-58QdSwWs7H1P7PEvXWH-44" target="-58QdSwWs7H1P7PEvXWH-80">
          <mxGeometry relative="1" as="geometry" />
        </mxCell>
        <mxCell id="-58QdSwWs7H1P7PEvXWH-44" value="if dim_reg_f==1 &amp;&amp; dim_reg_c==1" style="rhombus;whiteSpace=wrap;html=1;rounded=1;" vertex="1" parent="1">
          <mxGeometry x="253.745" y="1450" width="80" height="80" as="geometry" />
        </mxCell>
        <mxCell id="-58QdSwWs7H1P7PEvXWH-46" value="Fallo en la union de los registros" style="whiteSpace=wrap;html=1;rounded=1;" vertex="1" parent="1">
          <mxGeometry x="590" y="1550" width="120" height="60" as="geometry" />
        </mxCell>
        <mxCell id="-58QdSwWs7H1P7PEvXWH-51" value="No" style="text;html=1;align=center;verticalAlign=middle;whiteSpace=wrap;rounded=0;" vertex="1" parent="1">
          <mxGeometry x="610" y="1460" width="60" height="30" as="geometry" />
        </mxCell>
        <mxCell id="-58QdSwWs7H1P7PEvXWH-56" value="" style="edgeStyle=orthogonalEdgeStyle;rounded=0;orthogonalLoop=1;jettySize=auto;html=1;" edge="1" parent="1" source="-58QdSwWs7H1P7PEvXWH-52" target="-58QdSwWs7H1P7PEvXWH-55">
          <mxGeometry relative="1" as="geometry" />
        </mxCell>
        <mxCell id="-58QdSwWs7H1P7PEvXWH-58" value="" style="edgeStyle=orthogonalEdgeStyle;rounded=0;orthogonalLoop=1;jettySize=auto;html=1;dashed=1;" edge="1" parent="1" source="-58QdSwWs7H1P7PEvXWH-52" target="-58QdSwWs7H1P7PEvXWH-57">
          <mxGeometry relative="1" as="geometry" />
        </mxCell>
        <mxCell id="-58QdSwWs7H1P7PEvXWH-52" value="Para cada registro del mismo dia" style="whiteSpace=wrap;html=1;rounded=1;" vertex="1" parent="1">
          <mxGeometry x="85" y="1590" width="120" height="60" as="geometry" />
        </mxCell>
        <mxCell id="-58QdSwWs7H1P7PEvXWH-54" value="Si" style="text;html=1;align=center;verticalAlign=middle;whiteSpace=wrap;rounded=0;" vertex="1" parent="1">
          <mxGeometry x="85" y="1520" width="60" height="30" as="geometry" />
        </mxCell>
        <mxCell id="-58QdSwWs7H1P7PEvXWH-60" value="" style="edgeStyle=orthogonalEdgeStyle;rounded=0;orthogonalLoop=1;jettySize=auto;html=1;" edge="1" parent="1" source="-58QdSwWs7H1P7PEvXWH-55" target="-58QdSwWs7H1P7PEvXWH-59">
          <mxGeometry relative="1" as="geometry" />
        </mxCell>
        <mxCell id="-58QdSwWs7H1P7PEvXWH-55" value="Se inicializa con el registro &lt;code&gt;data{1,1}{1,k}&lt;/code&gt;." style="whiteSpace=wrap;html=1;rounded=1;" vertex="1" parent="1">
          <mxGeometry x="85" y="1700" width="120" height="60" as="geometry" />
        </mxCell>
        <mxCell id="-58QdSwWs7H1P7PEvXWH-57" value="&lt;strong&gt;&lt;code&gt;k=1:3&lt;/code&gt;&lt;/strong&gt;: Itera tres veces (presumiblemente para tres registros del mismo día)." style="whiteSpace=wrap;html=1;rounded=1;fillColor=#f8cecc;strokeColor=#b85450;" vertex="1" parent="1">
          <mxGeometry x="-150" y="1590" width="155" height="60" as="geometry" />
        </mxCell>
        <mxCell id="-58QdSwWs7H1P7PEvXWH-62" value="" style="edgeStyle=orthogonalEdgeStyle;rounded=0;orthogonalLoop=1;jettySize=auto;html=1;dashed=1;" edge="1" parent="1" source="-58QdSwWs7H1P7PEvXWH-59" target="-58QdSwWs7H1P7PEvXWH-61">
          <mxGeometry relative="1" as="geometry" />
        </mxCell>
        <mxCell id="-58QdSwWs7H1P7PEvXWH-64" value="" style="edgeStyle=orthogonalEdgeStyle;rounded=0;orthogonalLoop=1;jettySize=auto;html=1;" edge="1" parent="1" source="-58QdSwWs7H1P7PEvXWH-59" target="-58QdSwWs7H1P7PEvXWH-63">
          <mxGeometry relative="1" as="geometry" />
        </mxCell>
        <mxCell id="-58QdSwWs7H1P7PEvXWH-59" value="Se establece el valor para el index" style="whiteSpace=wrap;html=1;rounded=1;" vertex="1" parent="1">
          <mxGeometry x="85" y="1840" width="120" height="60" as="geometry" />
        </mxCell>
        <mxCell id="-58QdSwWs7H1P7PEvXWH-67" style="edgeStyle=orthogonalEdgeStyle;rounded=0;orthogonalLoop=1;jettySize=auto;html=1;entryX=1;entryY=0.5;entryDx=0;entryDy=0;" edge="1" parent="1" source="-58QdSwWs7H1P7PEvXWH-61" target="-58QdSwWs7H1P7PEvXWH-65">
          <mxGeometry relative="1" as="geometry" />
        </mxCell>
        <mxCell id="-58QdSwWs7H1P7PEvXWH-61" value="index=k:3:length(data{1,1});" style="whiteSpace=wrap;html=1;rounded=1;fillColor=#f8cecc;strokeColor=#b85450;" vertex="1" parent="1">
          <mxGeometry x="-130" y="1850" width="155" height="40" as="geometry" />
        </mxCell>
        <mxCell id="-58QdSwWs7H1P7PEvXWH-69" value="" style="edgeStyle=orthogonalEdgeStyle;rounded=0;orthogonalLoop=1;jettySize=auto;html=1;" edge="1" parent="1" source="-58QdSwWs7H1P7PEvXWH-63" target="-58QdSwWs7H1P7PEvXWH-68">
          <mxGeometry relative="1" as="geometry" />
        </mxCell>
        <mxCell id="-58QdSwWs7H1P7PEvXWH-63" value="Para cada indice excepto el primero" style="whiteSpace=wrap;html=1;rounded=1;" vertex="1" parent="1">
          <mxGeometry x="85" y="1980" width="120" height="60" as="geometry" />
        </mxCell>
        <mxCell id="-58QdSwWs7H1P7PEvXWH-65" value="&lt;code&gt;contiene una secuencia de índices que comienza en k y se incrementa en 3 hasta alcanzar la longitud de data{1,1}&lt;/code&gt;" style="whiteSpace=wrap;html=1;rounded=1;fillColor=#f8cecc;strokeColor=#b85450;" vertex="1" parent="1">
          <mxGeometry x="-400" y="1825" width="205" height="90" as="geometry" />
        </mxCell>
        <mxCell id="-58QdSwWs7H1P7PEvXWH-71" value="" style="edgeStyle=orthogonalEdgeStyle;rounded=0;orthogonalLoop=1;jettySize=auto;html=1;" edge="1" parent="1" source="-58QdSwWs7H1P7PEvXWH-68" target="-58QdSwWs7H1P7PEvXWH-70">
          <mxGeometry relative="1" as="geometry" />
        </mxCell>
        <mxCell id="-58QdSwWs7H1P7PEvXWH-68" value="se concatena el valor de data{1,1}{1,i} a la variable join_datos." style="whiteSpace=wrap;html=1;rounded=1;" vertex="1" parent="1">
          <mxGeometry x="85" y="2120" width="120" height="60" as="geometry" />
        </mxCell>
        <mxCell id="-58QdSwWs7H1P7PEvXWH-72" style="edgeStyle=orthogonalEdgeStyle;rounded=0;orthogonalLoop=1;jettySize=auto;html=1;entryX=0;entryY=0.5;entryDx=0;entryDy=0;exitX=1;exitY=1;exitDx=0;exitDy=0;" edge="1" parent="1" source="-58QdSwWs7H1P7PEvXWH-73">
          <mxGeometry relative="1" as="geometry">
            <mxPoint x="90.00000000000045" y="2289.9999999999995" as="sourcePoint" />
            <mxPoint x="70" y="2010" as="targetPoint" />
            <Array as="points">
              <mxPoint x="50" y="2290" />
              <mxPoint x="50" y="2010" />
            </Array>
          </mxGeometry>
        </mxCell>
        <mxCell id="-58QdSwWs7H1P7PEvXWH-75" value="" style="edgeStyle=orthogonalEdgeStyle;rounded=0;orthogonalLoop=1;jettySize=auto;html=1;" edge="1" parent="1" source="-58QdSwWs7H1P7PEvXWH-70" target="-58QdSwWs7H1P7PEvXWH-74">
          <mxGeometry relative="1" as="geometry" />
        </mxCell>
        <mxCell id="-58QdSwWs7H1P7PEvXWH-70" value="¿Quedan mas indices?" style="rhombus;whiteSpace=wrap;html=1;rounded=1;" vertex="1" parent="1">
          <mxGeometry x="105" y="2250" width="80" height="80" as="geometry" />
        </mxCell>
        <mxCell id="-58QdSwWs7H1P7PEvXWH-73" value="Si" style="text;html=1;align=center;verticalAlign=middle;whiteSpace=wrap;rounded=0;" vertex="1" parent="1">
          <mxGeometry x="50" y="2260" width="60" height="30" as="geometry" />
        </mxCell>
        <mxCell id="-58QdSwWs7H1P7PEvXWH-78" value="" style="edgeStyle=orthogonalEdgeStyle;rounded=0;orthogonalLoop=1;jettySize=auto;html=1;" edge="1" parent="1" source="-58QdSwWs7H1P7PEvXWH-74" target="-58QdSwWs7H1P7PEvXWH-77">
          <mxGeometry relative="1" as="geometry" />
        </mxCell>
        <mxCell id="-58QdSwWs7H1P7PEvXWH-74" value="Se asigna el valor de join_datos a la celda datos_mod{1,1}{1,k}" style="whiteSpace=wrap;html=1;rounded=1;" vertex="1" parent="1">
          <mxGeometry x="85" y="2420" width="120" height="60" as="geometry" />
        </mxCell>
        <mxCell id="-58QdSwWs7H1P7PEvXWH-76" value="No" style="text;html=1;align=center;verticalAlign=middle;whiteSpace=wrap;rounded=0;" vertex="1" parent="1">
          <mxGeometry x="145" y="2330" width="60" height="30" as="geometry" />
        </mxCell>
        <mxCell id="-58QdSwWs7H1P7PEvXWH-114" style="edgeStyle=orthogonalEdgeStyle;rounded=0;orthogonalLoop=1;jettySize=auto;html=1;entryX=0.5;entryY=0;entryDx=0;entryDy=0;" edge="1" parent="1" source="-58QdSwWs7H1P7PEvXWH-77" target="-58QdSwWs7H1P7PEvXWH-109">
          <mxGeometry relative="1" as="geometry">
            <Array as="points">
              <mxPoint x="145" y="2690" />
              <mxPoint x="530" y="2690" />
            </Array>
          </mxGeometry>
        </mxCell>
        <mxCell id="-58QdSwWs7H1P7PEvXWH-77" value="Se copia el valor de info{1,1}{1,k} a info_mod{1,1}{1,k}" style="whiteSpace=wrap;html=1;rounded=1;" vertex="1" parent="1">
          <mxGeometry x="85" y="2555" width="120" height="60" as="geometry" />
        </mxCell>
        <mxCell id="-58QdSwWs7H1P7PEvXWH-79" style="edgeStyle=orthogonalEdgeStyle;rounded=0;orthogonalLoop=1;jettySize=auto;html=1;entryX=0.999;entryY=0.437;entryDx=0;entryDy=0;entryPerimeter=0;" edge="1" parent="1" source="-58QdSwWs7H1P7PEvXWH-77" target="-58QdSwWs7H1P7PEvXWH-52">
          <mxGeometry relative="1" as="geometry">
            <Array as="points">
              <mxPoint x="260" y="2590" />
              <mxPoint x="260" y="1616" />
            </Array>
          </mxGeometry>
        </mxCell>
        <mxCell id="-58QdSwWs7H1P7PEvXWH-86" value="" style="edgeStyle=orthogonalEdgeStyle;rounded=0;orthogonalLoop=1;jettySize=auto;html=1;" edge="1" parent="1" source="-58QdSwWs7H1P7PEvXWH-80" target="-58QdSwWs7H1P7PEvXWH-85">
          <mxGeometry relative="1" as="geometry">
            <Array as="points">
              <mxPoint x="490" y="1730" />
            </Array>
          </mxGeometry>
        </mxCell>
        <mxCell id="-58QdSwWs7H1P7PEvXWH-91" value="" style="edgeStyle=orthogonalEdgeStyle;rounded=0;orthogonalLoop=1;jettySize=auto;html=1;" edge="1" parent="1" source="-58QdSwWs7H1P7PEvXWH-80" target="-58QdSwWs7H1P7PEvXWH-90">
          <mxGeometry relative="1" as="geometry">
            <Array as="points">
              <mxPoint x="400" y="1980" />
              <mxPoint x="400" y="1980" />
            </Array>
          </mxGeometry>
        </mxCell>
        <mxCell id="-58QdSwWs7H1P7PEvXWH-80" value="Si dim_reg_f es diferente de 1 o dim_reg_c es diferente de 1, y&amp;nbsp; dim_reg_c es igual a 2" style="rhombus;whiteSpace=wrap;html=1;rounded=1;" vertex="1" parent="1">
          <mxGeometry x="325" y="1600" width="150" height="130" as="geometry" />
        </mxCell>
        <mxCell id="-58QdSwWs7H1P7PEvXWH-82" value="En caso de" style="text;html=1;align=center;verticalAlign=middle;whiteSpace=wrap;rounded=0;" vertex="1" parent="1">
          <mxGeometry x="311.88" y="1530" width="60" height="30" as="geometry" />
        </mxCell>
        <mxCell id="-58QdSwWs7H1P7PEvXWH-88" value="" style="edgeStyle=orthogonalEdgeStyle;rounded=0;orthogonalLoop=1;jettySize=auto;html=1;" edge="1" parent="1" source="-58QdSwWs7H1P7PEvXWH-85" target="-58QdSwWs7H1P7PEvXWH-87">
          <mxGeometry relative="1" as="geometry" />
        </mxCell>
        <mxCell id="-58QdSwWs7H1P7PEvXWH-85" value="length(data{1,1})~=length(data{1,2})" style="rhombus;whiteSpace=wrap;html=1;rounded=1;" vertex="1" parent="1">
          <mxGeometry x="440" y="1785" width="100" height="85" as="geometry" />
        </mxCell>
        <mxCell id="-58QdSwWs7H1P7PEvXWH-93" style="edgeStyle=orthogonalEdgeStyle;rounded=0;orthogonalLoop=1;jettySize=auto;html=1;entryX=0.5;entryY=0;entryDx=0;entryDy=0;" edge="1" parent="1" source="-58QdSwWs7H1P7PEvXWH-87" target="-58QdSwWs7H1P7PEvXWH-90">
          <mxGeometry relative="1" as="geometry" />
        </mxCell>
        <mxCell id="-58QdSwWs7H1P7PEvXWH-87" value="El numero de registros no es igual" style="whiteSpace=wrap;html=1;rounded=1;" vertex="1" parent="1">
          <mxGeometry x="430" y="1930" width="120" height="60" as="geometry" />
        </mxCell>
        <mxCell id="-58QdSwWs7H1P7PEvXWH-95" value="" style="edgeStyle=orthogonalEdgeStyle;rounded=0;orthogonalLoop=1;jettySize=auto;html=1;" edge="1" parent="1" source="-58QdSwWs7H1P7PEvXWH-90" target="-58QdSwWs7H1P7PEvXWH-94">
          <mxGeometry relative="1" as="geometry" />
        </mxCell>
        <mxCell id="-58QdSwWs7H1P7PEvXWH-90" value="Para los registros (la cantidad de registros se determina por la longitud de data{1,1})" style="whiteSpace=wrap;html=1;rounded=1;" vertex="1" parent="1">
          <mxGeometry x="335" y="2060" width="130" height="70" as="geometry" />
        </mxCell>
        <mxCell id="-58QdSwWs7H1P7PEvXWH-92" value="Si" style="text;whiteSpace=wrap;html=1;" vertex="1" parent="1">
          <mxGeometry x="500" y="1870" width="40" height="40" as="geometry" />
        </mxCell>
        <mxCell id="-58QdSwWs7H1P7PEvXWH-97" value="" style="edgeStyle=orthogonalEdgeStyle;rounded=0;orthogonalLoop=1;jettySize=auto;html=1;" edge="1" parent="1" source="-58QdSwWs7H1P7PEvXWH-94" target="-58QdSwWs7H1P7PEvXWH-96">
          <mxGeometry relative="1" as="geometry" />
        </mxCell>
        <mxCell id="-58QdSwWs7H1P7PEvXWH-94" value="join_datos se crea concatenando el registro correspondiente de data{1,1} y data{1,2}" style="whiteSpace=wrap;html=1;rounded=1;" vertex="1" parent="1">
          <mxGeometry x="325" y="2170" width="150" height="90" as="geometry" />
        </mxCell>
        <mxCell id="-58QdSwWs7H1P7PEvXWH-99" value="" style="edgeStyle=orthogonalEdgeStyle;rounded=0;orthogonalLoop=1;jettySize=auto;html=1;" edge="1" parent="1" source="-58QdSwWs7H1P7PEvXWH-96" target="-58QdSwWs7H1P7PEvXWH-98">
          <mxGeometry relative="1" as="geometry" />
        </mxCell>
        <mxCell id="-58QdSwWs7H1P7PEvXWH-96" value="El valor de join_datos se asigna a datos_mod{1,1}{1,index}" style="whiteSpace=wrap;html=1;rounded=1;" vertex="1" parent="1">
          <mxGeometry x="335" y="2300" width="130" height="70" as="geometry" />
        </mxCell>
        <mxCell id="-58QdSwWs7H1P7PEvXWH-101" value="" style="edgeStyle=orthogonalEdgeStyle;rounded=0;orthogonalLoop=1;jettySize=auto;html=1;" edge="1" parent="1" source="-58QdSwWs7H1P7PEvXWH-98" target="-58QdSwWs7H1P7PEvXWH-100">
          <mxGeometry relative="1" as="geometry" />
        </mxCell>
        <mxCell id="-58QdSwWs7H1P7PEvXWH-98" value="El valor de info{1,1}{1,index} se copia a info_mod{1,1}{1,index}" style="whiteSpace=wrap;html=1;rounded=1;" vertex="1" parent="1">
          <mxGeometry x="340" y="2430" width="120" height="70" as="geometry" />
        </mxCell>
        <mxCell id="-58QdSwWs7H1P7PEvXWH-102" style="edgeStyle=orthogonalEdgeStyle;rounded=0;orthogonalLoop=1;jettySize=auto;html=1;entryX=1;entryY=0.5;entryDx=0;entryDy=0;" edge="1" parent="1" source="-58QdSwWs7H1P7PEvXWH-100" target="-58QdSwWs7H1P7PEvXWH-90">
          <mxGeometry relative="1" as="geometry">
            <Array as="points">
              <mxPoint x="520" y="2590" />
              <mxPoint x="520" y="2095" />
            </Array>
          </mxGeometry>
        </mxCell>
        <mxCell id="-58QdSwWs7H1P7PEvXWH-111" style="edgeStyle=orthogonalEdgeStyle;rounded=0;orthogonalLoop=1;jettySize=auto;html=1;entryX=0.5;entryY=0;entryDx=0;entryDy=0;" edge="1" parent="1" source="-58QdSwWs7H1P7PEvXWH-100" target="-58QdSwWs7H1P7PEvXWH-109">
          <mxGeometry relative="1" as="geometry">
            <Array as="points">
              <mxPoint x="400" y="2690" />
              <mxPoint x="530" y="2690" />
            </Array>
          </mxGeometry>
        </mxCell>
        <mxCell id="-58QdSwWs7H1P7PEvXWH-100" value="¿Quedan mas registros?" style="rhombus;whiteSpace=wrap;html=1;rounded=1;" vertex="1" parent="1">
          <mxGeometry x="360" y="2545" width="80" height="80" as="geometry" />
        </mxCell>
        <mxCell id="-58QdSwWs7H1P7PEvXWH-104" value="Si" style="text;whiteSpace=wrap;html=1;" vertex="1" parent="1">
          <mxGeometry x="490" y="2560" width="20" height="30" as="geometry" />
        </mxCell>
        <mxCell id="-58QdSwWs7H1P7PEvXWH-105" value="No" style="text;whiteSpace=wrap;html=1;" vertex="1" parent="1">
          <mxGeometry x="340" y="2625" width="20" height="30" as="geometry" />
        </mxCell>
        <mxCell id="-58QdSwWs7H1P7PEvXWH-116" value="" style="edgeStyle=orthogonalEdgeStyle;rounded=0;orthogonalLoop=1;jettySize=auto;html=1;" edge="1" parent="1" source="-58QdSwWs7H1P7PEvXWH-109" target="-58QdSwWs7H1P7PEvXWH-115">
          <mxGeometry relative="1" as="geometry" />
        </mxCell>
        <mxCell id="-58QdSwWs7H1P7PEvXWH-109" value="FIn" style="whiteSpace=wrap;html=1;rounded=1;fillColor=#dae8fc;strokeColor=#6c8ebf;" vertex="1" parent="1">
          <mxGeometry x="470" y="2770" width="120" height="60" as="geometry" />
        </mxCell>
        <mxCell id="-58QdSwWs7H1P7PEvXWH-115" value="&lt;div&gt;OUT:&lt;/div&gt;&lt;div&gt;datos_mod,&lt;/div&gt;&lt;div&gt;info_mod&lt;br&gt;&lt;/div&gt;" style="whiteSpace=wrap;html=1;fillColor=#dae8fc;strokeColor=#6c8ebf;rounded=1;" vertex="1" parent="1">
          <mxGeometry x="270" y="2770" width="120" height="60" as="geometry" />
        </mxCell>
      </root>
    </mxGraphModel>
  </diagram>
</mxfile>
